# xmcd
#
# Track frame offsets:
#	150
#	14250
#	30212
#	42625
#	57237
#	71650
#	85000
#	97825
#	108950
#	122600
#	134687
#	146400
#	162112
#	175075
#	186675
#	197150
#	198522
#	202077
#	207530
#	215112
#	229812
#	241787
#	255025
#
# Disc length: 3547
#
# Revision: 3
# Processed by: cddbd v1.5.1PL0 Copyright (c) Steve Scherf et al.
# Submitted via: EZCDDA 4.3.2
# Normalized: r2:DSETVAR1,TDELIM( - )
#
DISCID=4c0dd917
DTITLE=Various Artist - ABer Dich gibts nur einmal für mich CD 1
DYEAR=1900
DGENRE=
TTITLE0=Nilson Brothers - Aber Dich gibts nur einmal für mich
TTITLE1=Freddy Quinn - Heimweh
TTITLE2=Lolita - Seemann
TTITLE3=Rudi Schurike - Caprifischer
TTITLE4=Caterina Valente - Wo meine Sonne scheint
TTITLE5=Leo Leandros - Mustafa
TTITLE6=Margot Eskens - Tiritomba
TTITLE7=Willy Hagara - Eine Kutsche voller Mädels
TTITLE8=Ryo Black - Ganz in Weiss
TTITLE9=Karel Gott - Weisst Du wohin
TTITLE10=Peter Krauss - Schwarze Rose Rosemarie
TTITLE11=Lys Assia - Mamatschi kauf mir ein Pferdchen
TTITLE12=Five Tops - Rag Doll
TTITLE13=Gus Backus - Brauner Bär und weisse Taube
TTITLE14=Gerd Böttcher - Für Gaby tu ich alles
TTITLE15=Bernd Spier - Ein Leben lang
TTITLE16=Bernd Spier - Das kannst Du mir nicht verbieten
TTITLE17=Bernd Spier - Das war mein schönster Tanz
TTITLE18=Bernd Spier - Pretty Belinda
TTITLE19=Rocco Granata - Marina
TTITLE20=Ivo Robic - Rot ist der Wein
TTITLE21=Kilima Hawaiian - Am Strand von Waikiki
TTITLE22=Louis Armstrong - Onkel Satchmos Lullaby
EXTD=
EXTT0=
EXTT1=
EXTT2=
EXTT3=
EXTT4=
EXTT5=
EXTT6=
EXTT7=
EXTT8=
EXTT9=
EXTT10=
EXTT11=
EXTT12=
EXTT13=
EXTT14=
EXTT15=
EXTT16=
EXTT17=
EXTT18=
EXTT19=
EXTT20=
EXTT21=
EXTT22=
PLAYORDER=
